{"title":"Stolichani v poveche - Season 4 - Episode 10","uid":7848800,"size":479334852,"categoryP":"video","categoryS":"tv_shows","magnet":"?xt=urn:btih:942adce3eae87ace25f73de86ab8a68402f81e43&amp;dn=Stolichani+v+poveche+-+Season+4+-+Episode+10&amp;tr=udp%3A%2F%2Ftracker.openbittorrent.com%3A80&amp;tr=udp%3A%2F%2Fopen.demonii.com%3A1337&amp;tr=udp%3A%2F%2Ftracker.coppersurfer.tk%3A6969&amp;tr=udp%3A%2F%2Fexodus.desync.com%3A6969","seeders":1,"leechers":0,"uploader":null,"files":1,"time":1353539161,"description":"HQ WEBrip\n\nFormat                                   : AVI\nFormat/Info                              : Audio Video Interleave\nFile size                                : 457 MiB\nDuration                                 : 42mn 40s\nOverall bit rate                         : 1 497 Kbps\nWriting application                      : Lavf52.84.0\nWriting library                          : VirtualDub build 32842/release\n\nVideo\nID                                       : 0\nFormat                                   : xvid\nCodec ID                                 : xvid\nDuration                                 : 42mn 40s\nBit rate                                 : 1 359 Kbps\nWidth                                    : 720 pixels\nHeight                                   : 400 pixels\nDisplay aspect ratio                     : 16:9\nFrame rate                               : 25.000 fps\nBits/(Pixel*Frame)                       : 0.189\nStream size                              : 415 MiB (91%)\n\nAudio\nID                                       : 1\nFormat                                   : AC-3\nFormat/Info                              : Audio Coding 3\nMode extension                           : CM (complete main)\nFormat settings, Endianness              : Big\nCodec ID                                 : 2000\nDuration                                 : 42mn 40s\nBit rate mode                            : Constant\nBit rate                                 : 128 Kbps\nChannel(s)                               : 2 channels\nChannel positions                        : Front: L R\nSampling rate                            : 48.0 KHz\nBit depth                                : 16 bits\nCompression mode                         : Lossy\nStream size                              : 39.1 MiB (9%)\nAlignment                                : Aligned on interleaves\nInterleave, duration                     : 32 ms (0.80 video frame)\nInterleave, preload duration             : 512 ms\n\n","torrent":{"xt":"urn:btih:942adce3eae87ace25f73de86ab8a68402f81e43","amp;dn":"Stolichani+v+poveche+-+Season+4+-+Episode+10","amp;tr":["udp%3A%2F%2Ftracker.openbittorrent.com%3A80","udp%3A%2F%2Fopen.demonii.com%3A1337","udp%3A%2F%2Ftracker.coppersurfer.tk%3A6969","udp%3A%2F%2Fexodus.desync.com%3A6969"],"infoHash":"942adce3eae87ace25f73de86ab8a68402f81e43","infoHashBuffer":{"type":"Buffer","data":[148,42,220,227,234,232,122,206,37,247,61,232,106,184,166,132,2,248,30,67]},"announce":[],"urlList":[]}}